# xmcd CD database file
#
# Track frame offsets:
#	150
#	22875
#	57720
#	83612
#	109137
#	137874
#	165468
#	196446
#	221203
#	245520
#
# Disc length: 3599 seconds
#
# Revision: 0
# Processed by: cddbd v1.5.2PL0 Copyright (c) Steve Scherf et al.
# Submitted via: CDex 1.51
#
DISCID=8d0e0d0a
DTITLE=Richie Beirach Trio - Summer Night
DYEAR=2008
DGENRE=Jazz
TTITLE0=Summer Night
TTITLE1=All of You
TTITLE2=Solar
TTITLE3=Memories Of You
TTITLE4=All Blues
TTITLE5=Siciliano
TTITLE6=I Remember You
TTITLE7=Impressions Intimas No.1
TTITLE8=Milestones
TTITLE9=So What
EXTD=YEAR: 2008
EXTT0=
EXTT1=
EXTT2=
EXTT3=
EXTT4=
EXTT5=
EXTT6=
EXTT7=
EXTT8=
EXTT9=
PLAYORDER=
